<?xml version="1.0" standalone="no"?>
<!DOCTYPE svg PUBLIC "-//W3C//DTD SVG 20010904//EN"
 "http://www.w3.org/TR/2001/REC-SVG-20010904/DTD/svg10.dtd">
<svg version="1.0" xmlns="http://www.w3.org/2000/svg"
 width="598.000000pt" height="598.000000pt" viewBox="0 0 598.000000 598.000000"
 preserveAspectRatio="xMidYMid meet">
<metadata>
Created by potrace 1.11, written by Peter Selinger 2001-2013
</metadata>
<g transform="translate(0.000000,598.000000) scale(0.100000,-0.100000)"
fill="#000000" stroke="none">
<path d="M2739 5976 c-2 -2 -33 -7 -69 -10 -36 -4 -94 -11 -130 -17 -36 -6
-78 -13 -95 -16 -16 -2 -59 -11 -95 -19 -36 -9 -73 -17 -82 -19 -85 -18 -332
-99 -418 -137 -146 -65 -196 -89 -295 -143 -443 -244 -811 -587 -1089 -1017
-31 -48 -56 -91 -56 -94 0 -3 -9 -18 -19 -33 -34 -47 -137 -262 -184 -381 -63
-163 -125 -365 -143 -470 -3 -14 -11 -56 -19 -95 -33 -169 -40 -266 -40 -545
0 -267 2 -291 40 -530 5 -29 64 -276 79 -330 35 -122 115 -320 191 -471 280
-556 713 -998 1280 -1307 217 -119 414 -193 695 -262 245 -59 366 -73 680 -75
354 -3 496 14 815 97 44 11 85 21 90 22 6 1 15 4 20 7 6 4 35 14 65 24 147 47
397 164 555 260 326 197 611 448 834 735 28 36 54 70 59 75 19 23 112 166 154
235 80 134 172 323 223 460 15 41 31 84 36 95 34 77 116 423 133 555 3 25 9
72 13 105 4 33 7 168 8 300 0 253 -7 360 -31 495 -2 14 -7 41 -10 60 -3 19
-17 82 -31 140 -13 58 -26 112 -28 120 -25 111 -128 378 -204 529 -82 164
-211 372 -297 481 -133 167 -310 355 -433 460 -191 162 -466 339 -686 442
-112 52 -326 135 -369 144 -11 2 -40 10 -65 18 -60 20 -196 53 -245 60 -21 4
-41 8 -45 10 -3 2 -28 6 -56 10 -27 3 -61 8 -75 10 -80 15 -141 18 -386 22
-149 2 -273 2 -275 0z"/>
</g>
</svg>
